<svg width="160" height="160" viewBox="0 0 160 160" fill="none" xmlns="http://www.w3.org/2000/svg">
<g id="avatar-default-svgrepo-com 2">
<rect width="160" height="160" rx="16" fill="#7A68FF" fill-opacity="0.2"/>
<path id="Vector" d="M80 10C63.4375 10 50 23.4375 50 40C50 56.5625 63.4375 70 80 70C96.5625 70 110 56.5625 110 40C110 23.4375 96.5625 10 80 10ZM65 80C40.0781 80 20 100.078 20 125V130C20 141.094 28.9062 150 40 150H120C131.094 150 140 141.094 140 130V125C140 100.078 119.922 80 95 80H65Z" fill="#7A68FF"/>
</g>
</svg>
