<svg width="510" height="167" viewBox="0 0 510 167" fill="none" xmlns="http://www.w3.org/2000/svg">
<path d="M83.3652 114.168V128H0.0273725V5.24099H81.8091V19.073H15.5884V58.84H73.1641V71.8075H15.5884V114.168H83.3652ZM90.0164 37.7462L113.877 70.943L115.26 73.7094L116.816 70.943L140.503 37.7462H157.447L124.078 83.046L157.62 128H140.676L116.816 94.9761L115.26 92.3826L113.877 94.9761L90.0164 128H73.0722L106.615 83.046L73.2451 37.7462H90.0164ZM145.135 101.892C145.135 96.1288 146.749 91.1723 149.976 87.0227C153.319 82.7578 157.872 79.4727 163.635 77.1674C169.399 74.8621 176.084 73.7094 183.692 73.7094C187.726 73.7094 191.991 74.0552 196.486 74.7468C200.982 75.3231 204.958 76.2453 208.416 77.5132V70.943C208.416 64.027 206.342 58.6095 202.192 54.6904C198.042 50.6561 192.164 48.6389 184.556 48.6389C179.6 48.6389 174.816 49.561 170.206 51.4053C165.71 53.1343 160.927 55.6702 155.855 59.0129L150.322 48.2931C156.201 44.2588 162.079 41.2618 167.958 39.3023C173.836 37.2275 179.946 36.1901 186.285 36.1901C197.812 36.1901 206.918 39.4176 213.603 45.8725C220.289 52.2122 223.632 61.0877 223.632 72.4991V110.71C223.632 112.554 223.977 113.937 224.669 114.86C225.476 115.666 226.744 116.128 228.473 116.243V128C226.974 128.231 225.649 128.403 224.496 128.519C223.459 128.634 222.594 128.692 221.903 128.692C218.329 128.692 215.621 127.712 213.776 125.752C212.047 123.793 211.068 121.718 210.837 119.528L210.491 113.822C206.572 118.894 201.443 122.813 195.103 125.579C188.763 128.346 182.481 129.729 176.257 129.729C170.263 129.729 164.903 128.519 160.177 126.098C155.451 123.562 151.763 120.219 149.112 116.07C146.461 111.805 145.135 107.079 145.135 101.892ZM203.921 108.289C205.304 106.676 206.399 105.062 207.206 103.448C208.013 101.719 208.416 100.278 208.416 99.1257V87.8872C204.843 86.504 201.097 85.4666 197.178 84.775C193.259 83.9681 189.397 83.5647 185.594 83.5647C177.871 83.5647 171.589 85.1208 166.748 88.233C162.022 91.2299 159.659 95.3795 159.659 100.682C159.659 103.563 160.408 106.387 161.906 109.154C163.52 111.805 165.825 113.995 168.822 115.724C171.935 117.453 175.738 118.318 180.234 118.318C184.96 118.318 189.455 117.395 193.72 115.551C197.985 113.592 201.385 111.171 203.921 108.289ZM365.014 128H349.799V77.5132C349.799 68.0613 348.243 61.0877 345.13 56.5923C342.133 52.0969 337.638 49.8492 331.644 49.8492C325.535 49.8492 320.002 52.0969 315.046 56.5923C310.089 60.9724 306.574 66.6781 304.499 73.7094V128H289.284V77.5132C289.284 67.9461 287.785 60.9724 284.788 56.5923C281.791 52.0969 277.296 49.8492 271.302 49.8492C265.308 49.8492 259.775 52.0393 254.704 56.4194C249.747 60.6843 246.232 66.39 244.157 73.5365V128H228.942V37.7462H242.774V57.111C246.462 50.4255 251.246 45.2962 257.124 41.7229C263.003 38.0344 269.631 36.1901 277.008 36.1901C284.5 36.1901 290.494 38.2649 294.989 42.4145C299.485 46.4488 302.251 51.6935 303.289 58.1484C307.323 51.0019 312.222 45.5843 317.985 41.8958C323.748 38.092 330.319 36.1901 337.696 36.1901C342.883 36.1901 347.205 37.1699 350.663 39.1294C354.236 40.9737 357.06 43.6248 359.135 47.0828C361.21 50.4255 362.709 54.4022 363.631 59.0129C364.553 63.6236 365.014 68.6377 365.014 74.0552V128Z" fill="#7A68FF"/>
<path d="M369.652 128V37.7462H384.868V128H369.652ZM369.652 20.802V1.78299H384.868V20.802H369.652ZM395.323 128V49.6763H383.047V37.7462H395.323V35.8443C395.323 28.4672 396.418 22.1276 398.608 16.8253C400.913 11.4078 404.141 7.25815 408.29 4.37649C412.44 1.49482 417.339 0.0539916 422.987 0.0539916C426.56 0.0539916 430.076 0.572692 433.534 1.61009C436.992 2.53222 440.104 3.85779 442.87 5.58679L439.066 16.8253C437.453 15.6726 435.436 14.7505 433.015 14.0589C430.71 13.3673 428.404 13.0215 426.099 13.0215C421.142 13.0215 417.281 14.981 414.515 18.9001C411.863 22.7039 410.538 28.1791 410.538 35.3256V37.7462H434.571V49.6763H410.538V128H395.323ZM434.878 152.552C436.376 152.667 437.875 152.782 439.373 152.898C440.872 153.128 442.024 153.243 442.831 153.243C444.675 153.243 446.289 152.609 447.672 151.342C449.055 150.074 450.554 147.595 452.168 143.907C453.897 140.334 456.087 135.031 458.738 128L420.527 37.7462H436.607L467.037 112.612L494.528 37.7462H509.57L465.654 151.687C464.616 154.338 463.06 156.817 460.986 159.122C459.026 161.543 456.49 163.445 453.378 164.828C450.266 166.211 446.52 166.903 442.139 166.903C441.102 166.903 440.007 166.845 438.854 166.73C437.817 166.614 436.491 166.384 434.878 166.038V152.552Z" fill="white"/>
</svg>
